<svg version="1.1" xmlns="http://www.w3.org/2000/svg" xmlns:xlink="http://www.w3.org/1999/xlink" width="48" height="48"><defs><linearGradient x1="0" y1="0" x2="0" y2="0" gradientUnits="userSpaceOnUse" id="color-1"><stop offset="0.91" stop-color="#000000"></stop><stop offset="1" stop-color="#000000" stop-opacity="0"></stop></linearGradient><filter id="dropshadow-base"><feColorMatrix type="matrix" values="0 0 0 0 0  0 0 0 0 0  0 0 0 0 0  0 0 0 .8 0"></feColorMatrix> <feOffset dx="0" dy="1"></feOffset> <feGaussianBlur stdDeviation="1"></feGaussianBlur> <feComposite in="SourceGraphic"></feComposite></filter><filter id="dropshadow-banner" x="-10%" y="-10%" width="120%" height="130%"><feColorMatrix type="matrix" values="0 0 0 0 0  0 0 0 0 0  0 0 0 0 0  0 0 0 .4 0"></feColorMatrix> <feOffset dx="0" dy="1"></feOffset> <feGaussianBlur stdDeviation="0.5"></feGaussianBlur> <feComposite in="SourceGraphic"></feComposite></filter></defs><g fill="none" fill-rule="nonzero" stroke="none" stroke-width="none" stroke-linecap="butt" stroke-linejoin="miter" stroke-miterlimit="10" stroke-dasharray="" stroke-dashoffset="0" font-family="none" font-weight="none" font-size="none" text-anchor="none" style="mix-blend-mode: normal"><path d="M7,43c-1.10457,0 -2,-0.89543 -2,-2v-34c0,-1.10457 0.89543,-2 2,-2h34c1.10457,0 2,0.89543 2,2v34c0,1.10457 -0.89543,2 -2,2z" id="base 1 9" fill="#0f0f0f" stroke-width="1"></path><path d="" fill="url(#color-1)" stroke-width="1"></path><path d="M37.91174,37.91174h-27.82348v-27.82348h13.91174v-3.97478h-13.91174c-2.19607,0 -3.97478,1.77872 -3.97478,3.97478v27.82348c0,2.19607 1.77872,3.97478 3.97478,3.97478h27.82348c2.19607,0 3.97478,-1.77872 3.97478,-3.97478v-13.91174h-3.97478zM27.97478,6.11348v3.97478h7.1248l-19.53605,19.53605l2.81216,2.81216l19.53605,-19.53605v7.1248h3.97478v-13.91174z" fill="none" stroke-width="0"></path><path d="M37.91174,24h3.97478v13.91174c0,2.19607 -1.77872,3.97478 -3.97478,3.97478h-27.82348c-2.19607,0 -3.97478,-1.77872 -3.97478,-3.97478v-27.82348c0,-2.19607 1.77872,-3.97478 3.97478,-3.97478h13.91174v3.97478h-13.91174v27.82348h27.82348zM41.88652,6.11348v13.91174h-3.97478v-7.1248l-19.53605,19.53605l-2.81216,-2.81216l19.53605,-19.53605h-7.1248v-3.97478z" fill="#f0691b" stroke-width="0"></path><path d="M2,24c0,-12.15026 9.84974,-22 22,-22c12.15026,0 22,9.84974 22,22c0,12.15026 -9.84974,22 -22,22c-12.15026,0 -22,-9.84974 -22,-22z" id="base 1 5 1" fill="none" stroke-width="1"></path><path d="M2,24c0,-12.15026 9.84974,-22 22,-22c12.15026,0 22,9.84974 22,22c0,12.15026 -9.84974,22 -22,22c-12.15026,0 -22,-9.84974 -22,-22z" id="base 1 1 1" fill="none" stroke-width="1"></path><g fill="#000000" stroke-width="1" font-family="Roboto,sans-serif" font-weight="400" font-size="14" text-anchor="start"></g><rect x="2" y="2" width="44" height="22" fill="none" stroke-width="1"></rect><path d="M2,24v-22h44v22z" fill="none" stroke-width="1"></path><path d="M2,24v-22h44v22z" fill="none" stroke-width="1"></path><path d="M2,24v-22h44v22z" fill="none" stroke-width="1"></path><path d="M2,24v-22h44v22z" fill="none" stroke-width="1"></path><g fill="#000000" stroke-width="1" font-family="Roboto,sans-serif" font-weight="400" font-size="14" text-anchor="start"></g><rect x="2" y="2" width="44" height="22" fill="none" stroke-width="1"></rect><path d="M2,24v-22h44v22z" fill="none" stroke-width="1"></path><path d="M2,24v-22h44v22z" fill="none" stroke-width="1"></path><path d="M2,24v-22h44v22z" fill="none" stroke-width="1"></path><path d="M2,24v-22h44v22z" fill="none" stroke-width="1"></path></g></svg>